<svg width="402" height="274" viewBox="0 0 402 274" fill="none" xmlns="http://www.w3.org/2000/svg">
<path fill-rule="evenodd" clip-rule="evenodd" d="M229.769 2.19326C231.179 0.839514 233.107 0.127014 234.961 0.127014C236.889 0.127014 238.744 0.768264 240.227 2.19326L257.582 18.8658C260.474 21.6445 260.474 26.1333 257.582 28.912L244.009 41.9508L216.197 15.232L229.769 2.19326ZM215.084 49.5745L208.261 43.0195L141.066 107.572V114.127H147.889L215.084 49.5745ZM208.261 22.8558L126.233 101.658V128.377H154.045L236.074 49.5745L208.261 22.8558ZM4.3447 168.608C1.7047 173.792 0.384705 181.256 0.384705 191V200.432C0.384705 210.224 1.7047 217.688 4.3447 222.824C7.0327 228.008 11.0167 230.6 16.2967 230.6H17.3767V225.2L16.4407 225.128C10.0567 224.744 6.86471 216.56 6.86471 200.576V190.928C6.86471 174.944 10.0567 166.76 16.4407 166.376L17.3767 166.304V160.832H16.2967C11.0167 160.832 7.0327 163.424 4.3447 168.608ZM32.6891 199.64V210.656C32.6891 211.52 32.5451 212.096 32.2571 212.384C32.0171 212.624 31.4651 212.744 30.6011 212.744H27.5771C26.7131 212.744 26.1371 212.624 25.8491 212.384C25.5611 212.096 25.4171 211.52 25.4171 210.656V205.04H18.8651V211.664C18.8651 215.888 21.0971 218 25.5611 218H32.5451C37.0571 218 39.3131 215.888 39.3131 211.664V198.704C39.3131 194.48 37.1051 192.368 32.6891 192.368H27.4331C26.5691 192.368 25.9931 192.248 25.7051 192.008C25.4171 191.72 25.2731 191.144 25.2731 190.28V180.272C25.2731 179.408 25.4171 178.856 25.7051 178.616C25.9931 178.328 26.5691 178.184 27.4331 178.184H30.4571C31.3211 178.184 31.8971 178.328 32.1851 178.616C32.4731 178.856 32.6171 179.408 32.6171 180.272V185.888H39.1691V179.264C39.1691 175.04 36.9371 172.928 32.4731 172.928H25.4171C20.9531 172.928 18.7211 175.04 18.7211 179.264V191.144C18.7211 195.416 20.9051 197.552 25.2731 197.552H30.6011C31.4651 197.552 32.0171 197.696 32.2571 197.984C32.5451 198.224 32.6891 198.776 32.6891 199.64ZM53.4487 222.824C56.1367 217.688 57.4807 210.224 57.4807 200.432V191C57.4807 181.256 56.1367 173.792 53.4487 168.608C50.8087 163.424 46.8487 160.832 41.5687 160.832H40.4887V166.304L41.4247 166.376C47.8087 166.76 51.0007 174.944 51.0007 190.928V200.576C51.0007 216.56 47.8087 224.744 41.4247 225.128L40.4887 225.2V230.6H41.5687C46.8487 230.6 50.8087 228.008 53.4487 222.824ZM78.1211 182.864H70.4171C66.0011 182.864 63.7931 185 63.7931 189.272V211.664C63.7931 215.888 66.0011 218 70.4171 218H78.1211C82.5851 218 84.8171 215.888 84.8171 211.664V189.272C84.8171 185 82.5851 182.864 78.1211 182.864ZM78.4091 190.136V210.728C78.4091 211.592 78.2651 212.168 77.9771 212.456C77.6891 212.744 77.1131 212.888 76.2491 212.888H72.2891C71.4251 212.888 70.8491 212.744 70.5611 212.456C70.3211 212.168 70.2011 211.592 70.2011 210.728V190.136C70.2011 189.272 70.3211 188.696 70.5611 188.408C70.8491 188.12 71.4251 187.976 72.2891 187.976H76.2491C77.1131 187.976 77.6891 188.12 77.9771 188.408C78.2651 188.696 78.4091 189.272 78.4091 190.136ZM90.8015 218H97.2815V169.832H90.8015V218ZM123.542 182.864H117.062V210.224C117.062 211.136 116.87 211.784 116.486 212.168C116.15 212.552 115.55 212.744 114.686 212.744H112.166C111.302 212.744 110.726 212.624 110.438 212.384C110.15 212.096 110.006 211.52 110.006 210.656V182.864H103.526V211.664C103.526 215.888 105.686 218 110.006 218H112.598C114.95 218 116.438 217.064 117.062 215.192V218H123.542V182.864ZM143.359 193.952H149.767V189.272C149.767 185 147.511 182.864 142.999 182.864H136.159C131.695 182.864 129.463 185 129.463 189.272V211.664C129.463 215.888 131.695 218 136.159 218H142.999C147.511 218 149.767 215.888 149.767 211.664V206.912H143.359V210.656C143.359 211.52 143.215 212.096 142.927 212.384C142.639 212.624 142.063 212.744 141.199 212.744H138.103C137.239 212.744 136.663 212.624 136.375 212.384C136.087 212.096 135.943 211.52 135.943 210.656V190.208C135.943 189.344 136.087 188.792 136.375 188.552C136.663 188.264 137.239 188.12 138.103 188.12H141.199C142.063 188.12 142.639 188.264 142.927 188.552C143.215 188.792 143.359 189.344 143.359 190.208V193.952ZM154.993 169.76V176.168H161.761V169.76H154.993ZM155.137 218H161.617V182.864H155.137V218ZM181.902 182.864H174.198C169.782 182.864 167.574 185 167.574 189.272V211.664C167.574 215.888 169.782 218 174.198 218H181.902C186.366 218 188.598 215.888 188.598 211.664V189.272C188.598 185 186.366 182.864 181.902 182.864ZM182.19 190.136V210.728C182.19 211.592 182.046 212.168 181.758 212.456C181.47 212.744 180.894 212.888 180.03 212.888H176.07C175.206 212.888 174.63 212.744 174.342 212.456C174.102 212.168 173.982 211.592 173.982 210.728V190.136C173.982 189.272 174.102 188.696 174.342 188.408C174.63 188.12 175.206 187.976 176.07 187.976H180.03C180.894 187.976 181.47 188.12 181.758 188.408C182.046 188.696 182.19 189.272 182.19 190.136ZM208.047 182.864H205.527C203.175 182.864 201.687 183.8 201.063 185.672V182.864H194.583V218H201.063V190.64C201.063 189.728 201.231 189.08 201.567 188.696C201.951 188.312 202.575 188.12 203.439 188.12H205.959C206.823 188.12 207.399 188.264 207.687 188.552C207.975 188.792 208.119 189.344 208.119 190.208V218H214.599V189.272C214.599 185 212.415 182.864 208.047 182.864ZM240.464 182.864H233.984V185.672C233.36 183.8 231.872 182.864 229.52 182.864H226.928C222.608 182.864 220.448 185 220.448 189.272V211.664C220.448 215.888 222.608 218 226.928 218H229.52C231.872 218 233.36 217.064 233.984 215.192V218H240.464V182.864ZM231.608 212.744H229.088C228.224 212.744 227.648 212.624 227.36 212.384C227.072 212.096 226.928 211.52 226.928 210.656V190.208C226.928 189.344 227.072 188.792 227.36 188.552C227.648 188.264 228.224 188.12 229.088 188.12H231.608C232.472 188.12 233.072 188.312 233.408 188.696C233.792 189.08 233.984 189.728 233.984 190.64V210.224C233.984 211.136 233.792 211.784 233.408 212.168C233.072 212.552 232.472 212.744 231.608 212.744ZM264.791 166.88H271.991V161.624H258.239V229.88H271.991V224.624H264.791V166.88ZM294.927 172.928H280.167V218H286.647V200.576H294.927C299.391 200.576 301.623 198.464 301.623 194.24V179.264C301.623 175.04 299.391 172.928 294.927 172.928ZM295.143 180.272V193.232C295.143 194.096 294.999 194.672 294.711 194.96C294.423 195.248 293.847 195.392 292.983 195.392H286.647V178.184H292.983C293.847 178.184 294.423 178.328 294.711 178.616C294.999 178.856 295.143 179.408 295.143 180.272ZM320.482 229.88V161.624H306.802V166.88H313.93V224.624H306.802V229.88H320.482ZM342.769 182.792H341.329C339.889 182.792 338.665 183.224 337.657 184.088C336.697 184.904 336.025 185.936 335.641 187.184V182.864H329.161V218H335.641V193.736C335.641 190.184 337.153 188.408 340.177 188.408H342.769V182.792ZM359.925 182.864H352.869C348.405 182.864 346.173 185 346.173 189.272V211.664C346.173 215.888 348.405 218 352.869 218H359.781C364.245 218 366.477 215.888 366.477 211.664V207.848H360.141V210.728C360.141 211.592 359.997 212.168 359.709 212.456C359.421 212.744 358.845 212.888 357.981 212.888H354.669C353.805 212.888 353.229 212.744 352.941 212.456C352.653 212.168 352.509 211.616 352.509 210.8V202.448H366.693V189.272C366.693 185 364.437 182.864 359.925 182.864ZM360.285 197.696H352.509V190.064C352.509 189.248 352.653 188.696 352.941 188.408C353.229 188.12 353.805 187.976 354.669 187.976H358.197C359.061 187.976 359.613 188.12 359.853 188.408C360.141 188.696 360.285 189.248 360.285 190.064V197.696ZM391.63 182.864H385.15L380.47 212.528L375.862 182.864H369.382L375.862 218H385.15L391.63 182.864ZM394.97 169.76V176.168H401.738V169.76H394.97ZM395.114 218H401.594V182.864H395.114V218ZM82.504 16.544V52.688C82.504 63.248 78.856 69.056 71.56 70.112C78.856 70.976 82.504 76.64 82.504 87.104V123.68C82.504 125.312 82.84 126.464 83.512 127.136C84.184 127.808 85.384 128.144 87.112 128.144H93.592V138.368H81.784C77.272 138.368 74.056 137.264 72.136 135.056C70.312 132.848 69.4 129.632 69.4 125.408V90.704C69.4 85.328 68.44 81.392 66.52 78.896C64.6 76.4 61.576 75.152 57.448 75.152H55V65.072H57.448C61.576 65.072 64.6 63.824 66.52 61.328C68.44 58.736 69.4 54.704 69.4 49.232V14.96C69.4 6.32001 73.528 2.00001 81.784 2.00001H93.592V12.224H87.112C85.384 12.224 84.184 12.56 83.512 13.232C82.84 13.808 82.504 14.912 82.504 16.544ZM302.088 17.544V53.688C302.088 64.248 305.736 70.056 313.032 71.112C305.736 71.976 302.088 77.64 302.088 88.104V124.68C302.088 126.312 301.752 127.464 301.08 128.136C300.408 128.808 299.208 129.144 297.48 129.144H291V139.368H302.808C307.32 139.368 310.488 138.264 312.312 136.056C314.136 133.848 315.048 130.632 315.048 126.408V91.704C315.048 86.328 316.008 82.392 317.928 79.896C319.848 77.4 322.92 76.152 327.144 76.152H329.448V66.072H327.144C322.92 66.072 319.848 64.824 317.928 62.328C316.008 59.736 315.048 55.704 315.048 50.232V15.96C315.048 11.832 314.136 8.66401 312.312 6.45601C310.488 4.15201 307.32 3.00001 302.808 3.00001H291V13.224H297.48C299.208 13.224 300.408 13.56 301.08 14.232C301.752 14.808 302.088 15.912 302.088 17.544Z" fill="black"/>
<path d="M61.3457 258.98V269H57.9707V243.406H67.4102C70.2109 243.406 72.4023 244.121 73.9844 245.551C75.5781 246.98 76.375 248.873 76.375 251.229C76.375 253.713 75.5957 255.629 74.0371 256.977C72.4902 258.312 70.2695 258.98 67.375 258.98H61.3457ZM61.3457 256.221H67.4102C69.2148 256.221 70.5977 255.799 71.5586 254.955C72.5195 254.1 73 252.869 73 251.264C73 249.74 72.5195 248.521 71.5586 247.607C70.5977 246.693 69.2793 246.219 67.6035 246.184H61.3457V256.221ZM87.8184 269.352C85.2402 269.352 83.1426 268.508 81.5254 266.82C79.9082 265.121 79.0996 262.854 79.0996 260.018V259.42C79.0996 257.533 79.457 255.852 80.1719 254.375C80.8984 252.887 81.9062 251.727 83.1953 250.895C84.4961 250.051 85.9023 249.629 87.4141 249.629C89.8867 249.629 91.8086 250.443 93.1797 252.072C94.5508 253.701 95.2363 256.033 95.2363 259.068V260.422H82.3516C82.3984 262.297 82.9434 263.814 83.9863 264.975C85.041 266.123 86.377 266.697 87.9941 266.697C89.1426 266.697 90.1152 266.463 90.9121 265.994C91.709 265.525 92.4062 264.904 93.0039 264.131L94.9902 265.678C93.3965 268.127 91.0059 269.352 87.8184 269.352ZM87.4141 252.301C86.1016 252.301 85 252.781 84.1094 253.742C83.2188 254.691 82.668 256.027 82.457 257.75H91.9844V257.504C91.8906 255.852 91.4453 254.574 90.6484 253.672C89.8516 252.758 88.7734 252.301 87.4141 252.301ZM102.092 249.98L102.197 252.371C103.65 250.543 105.549 249.629 107.893 249.629C111.912 249.629 113.939 251.896 113.975 256.432V269H110.723V256.414C110.711 255.043 110.395 254.029 109.773 253.373C109.164 252.717 108.209 252.389 106.908 252.389C105.854 252.389 104.928 252.67 104.131 253.232C103.334 253.795 102.713 254.533 102.268 255.447V269H99.0156V249.98H102.092ZM129.953 263.955C129.953 263.076 129.619 262.396 128.951 261.916C128.295 261.424 127.141 261.002 125.488 260.65C123.848 260.299 122.541 259.877 121.568 259.385C120.607 258.893 119.893 258.307 119.424 257.627C118.967 256.947 118.738 256.139 118.738 255.201C118.738 253.643 119.395 252.324 120.707 251.246C122.031 250.168 123.719 249.629 125.77 249.629C127.926 249.629 129.672 250.186 131.008 251.299C132.355 252.412 133.029 253.836 133.029 255.57H129.76C129.76 254.68 129.379 253.912 128.617 253.268C127.867 252.623 126.918 252.301 125.77 252.301C124.586 252.301 123.66 252.559 122.992 253.074C122.324 253.59 121.99 254.264 121.99 255.096C121.99 255.881 122.301 256.473 122.922 256.871C123.543 257.27 124.662 257.65 126.279 258.014C127.908 258.377 129.227 258.811 130.234 259.314C131.242 259.818 131.986 260.428 132.467 261.143C132.959 261.846 133.205 262.707 133.205 263.727C133.205 265.426 132.525 266.791 131.166 267.822C129.807 268.842 128.043 269.352 125.875 269.352C124.352 269.352 123.004 269.082 121.832 268.543C120.66 268.004 119.74 267.254 119.072 266.293C118.416 265.32 118.088 264.271 118.088 263.146H121.34C121.398 264.236 121.832 265.104 122.641 265.748C123.461 266.381 124.539 266.697 125.875 266.697C127.105 266.697 128.09 266.451 128.828 265.959C129.578 265.455 129.953 264.787 129.953 263.955ZM145.334 269.352C142.756 269.352 140.658 268.508 139.041 266.82C137.424 265.121 136.615 262.854 136.615 260.018V259.42C136.615 257.533 136.973 255.852 137.688 254.375C138.414 252.887 139.422 251.727 140.711 250.895C142.012 250.051 143.418 249.629 144.93 249.629C147.402 249.629 149.324 250.443 150.695 252.072C152.066 253.701 152.752 256.033 152.752 259.068V260.422H139.867C139.914 262.297 140.459 263.814 141.502 264.975C142.557 266.123 143.893 266.697 145.51 266.697C146.658 266.697 147.631 266.463 148.428 265.994C149.225 265.525 149.922 264.904 150.52 264.131L152.506 265.678C150.912 268.127 148.521 269.352 145.334 269.352ZM144.93 252.301C143.617 252.301 142.516 252.781 141.625 253.742C140.734 254.691 140.184 256.027 139.973 257.75H149.5V257.504C149.406 255.852 148.961 254.574 148.164 253.672C147.367 252.758 146.289 252.301 144.93 252.301ZM167.061 269V252.494H164.055V249.98H167.061V248.029C167.061 245.99 167.605 244.414 168.695 243.301C169.785 242.188 171.326 241.631 173.318 241.631C174.068 241.631 174.812 241.73 175.551 241.93L175.375 244.566C174.824 244.461 174.238 244.408 173.617 244.408C172.562 244.408 171.748 244.719 171.174 245.34C170.6 245.949 170.312 246.828 170.312 247.977V249.98H174.373V252.494H170.312V269H167.061ZM177.115 259.314C177.115 257.451 177.479 255.775 178.205 254.287C178.943 252.799 179.963 251.65 181.264 250.842C182.576 250.033 184.07 249.629 185.746 249.629C188.336 249.629 190.428 250.525 192.021 252.318C193.627 254.111 194.43 256.496 194.43 259.473V259.701C194.43 261.553 194.072 263.217 193.357 264.693C192.654 266.158 191.641 267.301 190.316 268.121C189.004 268.941 187.492 269.352 185.781 269.352C183.203 269.352 181.111 268.455 179.506 266.662C177.912 264.869 177.115 262.496 177.115 259.543V259.314ZM180.385 259.701C180.385 261.811 180.871 263.504 181.844 264.781C182.828 266.059 184.141 266.697 185.781 266.697C187.434 266.697 188.746 266.053 189.719 264.764C190.691 263.463 191.178 261.646 191.178 259.314C191.178 257.229 190.68 255.541 189.684 254.252C188.699 252.951 187.387 252.301 185.746 252.301C184.141 252.301 182.846 252.939 181.861 254.217C180.877 255.494 180.385 257.322 180.385 259.701ZM207.701 252.898C207.209 252.816 206.676 252.775 206.102 252.775C203.969 252.775 202.521 253.684 201.76 255.5V269H198.508V249.98H201.672L201.725 252.178C202.791 250.479 204.303 249.629 206.26 249.629C206.893 249.629 207.373 249.711 207.701 249.875V252.898ZM221.746 269C221.559 268.625 221.406 267.957 221.289 266.996C219.777 268.566 217.973 269.352 215.875 269.352C214 269.352 212.459 268.824 211.252 267.77C210.057 266.703 209.459 265.355 209.459 263.727C209.459 261.746 210.209 260.211 211.709 259.121C213.221 258.02 215.342 257.469 218.072 257.469H221.236V255.975C221.236 254.838 220.896 253.936 220.217 253.268C219.537 252.588 218.535 252.248 217.211 252.248C216.051 252.248 215.078 252.541 214.293 253.127C213.508 253.713 213.115 254.422 213.115 255.254H209.846C209.846 254.305 210.18 253.391 210.848 252.512C211.527 251.621 212.441 250.918 213.59 250.402C214.75 249.887 216.021 249.629 217.404 249.629C219.596 249.629 221.312 250.18 222.555 251.281C223.797 252.371 224.441 253.877 224.488 255.799V264.553C224.488 266.299 224.711 267.688 225.156 268.719V269H221.746ZM216.35 266.521C217.369 266.521 218.336 266.258 219.25 265.73C220.164 265.203 220.826 264.518 221.236 263.674V259.771H218.688C214.703 259.771 212.711 260.938 212.711 263.27C212.711 264.289 213.051 265.086 213.73 265.66C214.41 266.234 215.283 266.521 216.35 266.521ZM237.725 259.332C237.725 256.414 238.416 254.07 239.799 252.301C241.182 250.52 242.992 249.629 245.23 249.629C247.457 249.629 249.221 250.391 250.521 251.914V242H253.773V269H250.785L250.627 266.961C249.326 268.555 247.516 269.352 245.195 269.352C242.992 269.352 241.193 268.449 239.799 266.645C238.416 264.84 237.725 262.484 237.725 259.578V259.332ZM240.977 259.701C240.977 261.857 241.422 263.545 242.312 264.764C243.203 265.982 244.434 266.592 246.004 266.592C248.066 266.592 249.572 265.666 250.521 263.814V255.078C249.549 253.285 248.055 252.389 246.039 252.389C244.445 252.389 243.203 253.004 242.312 254.234C241.422 255.465 240.977 257.287 240.977 259.701ZM270.578 269C270.391 268.625 270.238 267.957 270.121 266.996C268.609 268.566 266.805 269.352 264.707 269.352C262.832 269.352 261.291 268.824 260.084 267.77C258.889 266.703 258.291 265.355 258.291 263.727C258.291 261.746 259.041 260.211 260.541 259.121C262.053 258.02 264.174 257.469 266.904 257.469H270.068V255.975C270.068 254.838 269.729 253.936 269.049 253.268C268.369 252.588 267.367 252.248 266.043 252.248C264.883 252.248 263.91 252.541 263.125 253.127C262.34 253.713 261.947 254.422 261.947 255.254H258.678C258.678 254.305 259.012 253.391 259.68 252.512C260.359 251.621 261.273 250.918 262.422 250.402C263.582 249.887 264.854 249.629 266.236 249.629C268.428 249.629 270.145 250.18 271.387 251.281C272.629 252.371 273.273 253.877 273.32 255.799V264.553C273.32 266.299 273.543 267.688 273.988 268.719V269H270.578ZM265.182 266.521C266.201 266.521 267.168 266.258 268.082 265.73C268.996 265.203 269.658 264.518 270.068 263.674V259.771H267.52C263.535 259.771 261.543 260.938 261.543 263.27C261.543 264.289 261.883 265.086 262.562 265.66C263.242 266.234 264.115 266.521 265.182 266.521ZM294.977 266.697C296.137 266.697 297.15 266.346 298.018 265.643C298.885 264.939 299.365 264.061 299.459 263.006H302.535C302.477 264.096 302.102 265.133 301.41 266.117C300.719 267.102 299.793 267.887 298.633 268.473C297.484 269.059 296.266 269.352 294.977 269.352C292.387 269.352 290.324 268.49 288.789 266.768C287.266 265.033 286.504 262.666 286.504 259.666V259.121C286.504 257.27 286.844 255.623 287.523 254.182C288.203 252.74 289.176 251.621 290.441 250.824C291.719 250.027 293.225 249.629 294.959 249.629C297.092 249.629 298.861 250.268 300.268 251.545C301.686 252.822 302.441 254.48 302.535 256.52H299.459C299.365 255.289 298.896 254.281 298.053 253.496C297.221 252.699 296.189 252.301 294.959 252.301C293.307 252.301 292.023 252.898 291.109 254.094C290.207 255.277 289.756 256.994 289.756 259.244V259.859C289.756 262.051 290.207 263.738 291.109 264.922C292.012 266.105 293.301 266.697 294.977 266.697ZM317.934 269C317.746 268.625 317.594 267.957 317.477 266.996C315.965 268.566 314.16 269.352 312.062 269.352C310.188 269.352 308.646 268.824 307.439 267.77C306.244 266.703 305.646 265.355 305.646 263.727C305.646 261.746 306.396 260.211 307.896 259.121C309.408 258.02 311.529 257.469 314.26 257.469H317.424V255.975C317.424 254.838 317.084 253.936 316.404 253.268C315.725 252.588 314.723 252.248 313.398 252.248C312.238 252.248 311.266 252.541 310.48 253.127C309.695 253.713 309.303 254.422 309.303 255.254H306.033C306.033 254.305 306.367 253.391 307.035 252.512C307.715 251.621 308.629 250.918 309.777 250.402C310.938 249.887 312.209 249.629 313.592 249.629C315.783 249.629 317.5 250.18 318.742 251.281C319.984 252.371 320.629 253.877 320.676 255.799V264.553C320.676 266.299 320.898 267.688 321.344 268.719V269H317.934ZM312.537 266.521C313.557 266.521 314.523 266.258 315.438 265.73C316.352 265.203 317.014 264.518 317.424 263.674V259.771H314.875C310.891 259.771 308.898 260.938 308.898 263.27C308.898 264.289 309.238 265.086 309.918 265.66C310.598 266.234 311.471 266.521 312.537 266.521ZM329.307 269H326.055V249.98H329.307V269ZM325.791 244.936C325.791 244.408 325.949 243.963 326.266 243.6C326.594 243.236 327.074 243.055 327.707 243.055C328.34 243.055 328.82 243.236 329.148 243.6C329.477 243.963 329.641 244.408 329.641 244.936C329.641 245.463 329.477 245.902 329.148 246.254C328.82 246.605 328.34 246.781 327.707 246.781C327.074 246.781 326.594 246.605 326.266 246.254C325.949 245.902 325.791 245.463 325.791 244.936ZM340.908 256.924L345.127 249.98H348.924L342.701 259.385L349.117 269H345.355L340.961 261.881L336.566 269H332.787L339.203 259.385L332.98 249.98H336.742L340.908 256.924ZM364.129 269C363.941 268.625 363.789 267.957 363.672 266.996C362.16 268.566 360.355 269.352 358.258 269.352C356.383 269.352 354.842 268.824 353.635 267.77C352.439 266.703 351.842 265.355 351.842 263.727C351.842 261.746 352.592 260.211 354.092 259.121C355.604 258.02 357.725 257.469 360.455 257.469H363.619V255.975C363.619 254.838 363.279 253.936 362.6 253.268C361.92 252.588 360.918 252.248 359.594 252.248C358.434 252.248 357.461 252.541 356.676 253.127C355.891 253.713 355.498 254.422 355.498 255.254H352.229C352.229 254.305 352.562 253.391 353.23 252.512C353.91 251.621 354.824 250.918 355.973 250.402C357.133 249.887 358.404 249.629 359.787 249.629C361.979 249.629 363.695 250.18 364.938 251.281C366.18 252.371 366.824 253.877 366.871 255.799V264.553C366.871 266.299 367.094 267.688 367.539 268.719V269H364.129ZM358.732 266.521C359.752 266.521 360.719 266.258 361.633 265.73C362.547 265.203 363.209 264.518 363.619 263.674V259.771H361.07C357.086 259.771 355.094 260.938 355.094 263.27C355.094 264.289 355.434 265.086 356.113 265.66C356.793 266.234 357.666 266.521 358.732 266.521Z" fill="#59C65B"/>
</svg>
